<svg xmlns="http://www.w3.org/2000/svg" viewBox="0 0 24 24" fill="none" stroke="#1A2E44" stroke-width="1.5" stroke-linecap="round" stroke-linejoin="round">
  <path d="M12 22s8-4 8-10V5l-8-3-8 3v7c0 6 8 10 8 10z" fill="#E8600A"/>
  <svg viewBox="0 0 24 24" fill="none" stroke="#FFFFFF" stroke-width="2" stroke-linecap="round" stroke-linejoin="round" x="3" y="3" width="18" height="18">
    <path d="m8 2 1.88 1.88"/><path d="M14.12 3.88 16 2"/><path d="M9 7.13v-1a3 3 0 1 1 6 0v1"/><path d="M12 20c-3.3 0-6-2.7-6-6v-3a4 4 0 0 1 4-4h4a4 4 0 0 1 4 4v3c0 3.3-2.7 6-6 6"/><path d="M12 20v-9"/><path d="M6.53 9C4.6 8.8 3 7.1 3 5"/><path d="M17.47 9c1.93-.2 3.53-1.9 3.53-3.9"/><path d="M6 14H2"/><path d="M22 14h-4"/><path d="M17.5 19c2-2.5 3.5-5.5 3.5-9"/><path d="M3 10c0 3.5 1.5 6.5 3.5 9"/>
  </svg>
</svg>
